#!OML:ASF F:\VICON\USERDATA\INSTALL\rory3\rory3.ASF
:FULLY-SPECIFIED
:DEGREES
262
root 2.59918 10.616 -4.50845 8.88978 -4.31439 -3.04841
lowerback 37.309 1.20358 -0.968565
upperback 15.1639 1.15052 1.93987
thorax -1.86425 0.362888 2.15411
lowerneck -7.73289 -0.708005 -9.83676
upperneck 27.7393 0.203244 2.31708
head 10.1057 -0.641696 2.53494
rclavicle 4.62174e-015 7.72775e-015
rhumerus -35.5839 24.6421 -90.3879
rradius 53.9622
rwrist 22.5627
rhand -69.9808 28.1559
rfingers 7.12502
rthumb -41.5907 3.43025
lclavicle 4.62174e-015 7.72775e-015
lhumerus -36.1963 -31.3401 90.5497
lradius 65.2062
lwrist 6.4179
lhand -10.3902 13.143
lfingers 7.12502
lthumb 15.6079 42.5333
rfemur -96.6005 -7.46546 19.4808
rtibia 103.355
rfoot -10.2256 -0.764426
rtoes -4.47765
lfemur -98.4326 6.56467 -10.8611
ltibia 100.284
lfoot -10.8085 -13.3425
ltoes -8.21265
263
root 2.59369 10.5899 -4.53178 8.51997 -4.24455 -2.92315
lowerback 36.8546 1.16693 -0.995743
upperback 15.0677 1.10834 1.96546
thorax -1.82297 0.344115 2.21209
lowerneck -7.80627 -0.64832 -10.1544
upperneck 27.8989 0.313735 2.47277
head 10.1719 -0.611856 2.65944
rclavicle -9.31803e-015 -1.01132e-014
rhumerus -35.6269 24.7199 -90.2358
rradius 53.4004
rwrist 23.7386
rhand -69.9158 23.6833
rfingers 7.12502
rthumb -41.5298 -1.06232
lclavicle -9.31803e-015 -1.01132e-014
lhumerus -36.0013 -31.2203 90.4774
lradius 64.9197
lwrist 5.93915
lhand -10.6333 13.533
lfingers 7.12502
lthumb 15.3737 42.9414
rfemur -96.4326 -7.31189 19.1777
rtibia 103.484
rfoot -10.1376 -0.987783
rtoes -4.8422
lfemur -98.3083 6.58565 -11.1008
ltibia 100.364
lfoot -10.6807 -13.4657
ltoes -7.91582
264
root 2.59012 10.5639 -4.55367 8.19865 -4.13019 -2.77131
lowerback 36.29 1.08321 -0.943464
upperback 14.9816 1.03328 1.95093
thorax -1.72829 0.315385 2.19799
lowerneck -7.84247 -0.613713 -10.4829
upperneck 27.8711 0.369612 2.68716
head 10.1643 -0.595755 2.79766
rclavicle -9.10061e-015 2.91126e-014
rhumerus -35.6762 24.6022 -90.1028
rradius 52.8455
rwrist 25.1991
rhand -70.5305 13.8569
rfingers 7.12502
rthumb -42.1061 -10.6975
lclavicle -9.10061e-015 2.91126e-014
lhumerus -35.8016 -31.1775 90.4033
lradius 64.6449
lwrist 5.72845
lhand -10.2203 13.9454
lfingers 7.12502
lthumb 15.7715 43.3229
rfemur -96.3382 -7.25734 18.8828
rtibia 103.658
rfoot -10.046 -1.19336
rtoes -5.65634
lfemur -98.162 6.48209 -11.3446
ltibia 100.483
lfoot -10.8326 -13.3591
ltoes -8.77211
265
root 2.58785 10.5496 -4.57709 7.68326 -4.11708 -2.6544
lowerback 35.8543 1.04912 -0.950521
upperback 14.9741 0.99563 1.95991
thorax -1.59097 0.298069 2.22659
lowerneck -8.01335 -0.596222 -10.7452
upperneck 27.9067 0.445947 2.75656
head 10.2065 -0.581043 2.87695
rclavicle 2.54693e-015 1.34801e-014
rhumerus -35.6065 24.6812 -89.9018
rradius 52.2878
rwrist 26.6018
rhand -70.7352 2.53748
rfingers 7.12502
rthumb -42.2979 -21.952
lclavicle 2.54693e-015 1.34801e-014
lhumerus -35.5272 -31.0679 90.345
lradius 64.3038
lwrist 5.50201
lhand -9.52852 13.9137
lfingers 7.12502
lthumb 16.4376 43.2373
rfemur -95.943 -7.08277 18.549
rtibia 103.761
rfoot -10.1227 -1.4862
rtoes -6.03085
lfemur -97.6579 6.35355 -11.4993
ltibia 100.603
lfoot -11.2195 -12.9312
ltoes -11.0686
266
root 2.58485 10.5421 -4.60804 7.14237 -4.13563 -2.57862
lowerback 35.5525 1.04792 -0.977798
upperback 14.8851 0.99228 1.98438
thorax -1.58773 0.296725 2.26924
lowerneck -8.29546 -0.589057 -10.8871
upperneck 28.1758 0.52854 2.73483
head 10.3571 -0.569215 2.90946
rclavicle -4.77083e-015 1.10947e-014
rhumerus -35.7562 25.0416 -89.7415
rradius 51.9274
rwrist 27.3283
rhand -70.731 -4.8257
rfingers 7.12502
rthumb -42.294 -29.3165
lclavicle -4.77083e-015 1.10947e-014
lhumerus -35.4257 -31.0312 90.3351
lradius 64.0278
lwrist 5.42907
lhand -8.82018 13.715
lfingers 7.12502
lthumb 17.1195 42.9808
rfemur -95.4567 -6.80611 18.2393
rtibia 103.777
rfoot -10.1876 -1.81719
rtoes -5.32806
lfemur -97.1192 6.15489 -11.3375
ltibia 100.615
lfoot -11.0411 -12.6986
ltoes -9.87502
267
root 2.58661 10.5326 -4.63725 6.6296 -4.14098 -2.47318
lowerback 35.2082 1.02444 -0.982409
upperback 14.78 0.969459 2.0041
thorax -1.58518 0.287736 2.30145
lowerneck -8.76828 -0.566023 -10.8085
upperneck 28.6264 0.698651 2.42454
head 10.6115 -0.533795 2.81494
rclavicle -1.98785e-014 -1.53064e-014
rhumerus -35.9522 25.248 -89.5905
rradius 51.6295
rwrist 27.8911
rhand -70.5761 -8.02321
rfingers 7.12502
rthumb -42.1489 -32.5632
lclavicle -1.98785e-014 -1.53064e-014
lhumerus -35.3676 -30.9733 90.3996
lradius 63.8204
lwrist 5.5202
lhand -8.07376 13.8496
lfingers 7.12502
lthumb 17.8379 43.0515
rfemur -94.9882 -6.57721 17.8847
rtibia 103.775
rfoot -10.081 -2.00762
rtoes -3.77765
lfemur -96.7345 5.95004 -11.1434
ltibia 100.607
lfoot -10.6718 -12.7552
ltoes -5.69001
268
root 2.5892 10.5098 -4.65346 6.07165 -4.11506 -2.3602
lowerback 34.8334 0.961125 -0.946916
upperback 14.7556 0.907505 1.99844
thorax -1.48008 0.261213 2.29906
lowerneck -9.25695 -0.54155 -10.8185
upperneck 28.8721 0.845645 2.2694
head 10.7936 -0.49519 2.78513
rclavicle 4.07509e-015 5.81445e-015
rhumerus -36.0323 25.3582 -89.4289
rradius 51.2893
rwrist 28.5423
rhand -70.33 -8.65249
rfingers 7.12502
rthumb -41.9182 -33.2699
lclavicle 4.07509e-015 5.81445e-015
lhumerus -35.2023 -30.961 90.3829
lradius 63.5999
lwrist 5.43333
lhand -7.6167 14.3063
lfingers 7.12502
lthumb 18.2776 43.4675
rfemur -94.5407 -6.43935 17.5521
rtibia 103.902
rfoot -9.99003 -2.21541
rtoes -3.32416
lfemur -96.4082 5.96248 -11.2997
ltibia 100.704
lfoot -10.4689 -12.9553
ltoes -3.65008
269
root 2.59073 10.4867 -4.67248 5.40454 -4.07069 -2.25229
lowerback 34.6475 0.897115 -0.911541
upperback 14.6958 0.844645 2.01071
thorax -1.47802 0.233853 2.31383
lowerneck -9.506 -0.513592 -11.0603
upperneck 28.9175 0.935459 2.38616
head 10.8531 -0.469166 2.88195
rclavicle -1.59028e-015 -1.69464e-014
rhumerus -36.1186 25.3788 -89.2009
rradius 50.9296
rwrist 29.3855
rhand -70.0051 -8.50289
rfingers 7.12502
rthumb -41.6135 -33.2211
lclavicle -1.59028e-015 -1.69464e-014
lhumerus -35.1131 -30.8456 90.4585
lradius 63.249
lwrist 5.16782
lhand -7.08739 14.426
lfingers 7.12502
lthumb 18.7868 43.5388
rfemur -93.9903 -6.28882 17.1947
rtibia 104.071
rfoot -9.97314 -2.39927
rtoes -2.51714
lfemur -95.8994 5.96243 -11.4914
ltibia 100.797
lfoot -10.208 -13.008
ltoes -4.01031
270
root 2.59183 10.4648 -4.69334 4.71734 -4.10243 -2.18369
lowerback 34.6437 0.871467 -0.911122
upperback 14.4902 0.818878 2.03334
thorax -1.69926 0.224529 2.34412
lowerneck -9.64985 -0.489802 -11.1211
upperneck 29.035 1.02657 2.30247
head 10.9221 -0.44913 2.87569
rclavicle 4.17448e-015 -4.72114e-015
rhumerus -36.5468 25.483 -89.0799
rradius 50.7863
rwrist 30.2253
rhand -69.6244 -7.89478
rfingers 7.12502
rthumb -41.2563 -32.7292
lclavicle 4.17448e-015 -4.72114e-015
lhumerus -35.4156 -30.7476 90.6889
lradius 63.0433
lwrist 4.94177
lhand -6.49363 14.5241
lfingers 7.12502
lthumb 19.3578 43.5806
rfemur -93.4125 -6.04157 16.8944
rtibia 104.206
rfoot -9.96469 -2.60051
rtoes -2.19023
lfemur -95.317 5.93619 -11.5226
ltibia 100.893
lfoot -9.8218 -12.8872
ltoes -5.03599
271
root 2.59298 10.4378 -4.71364 4.12863 -4.09781 -2.09546
lowerback 34.56 0.851809 -0.966759
upperback 14.2523 0.786435 2.07499
thorax -1.92849 0.209668 2.42643
lowerneck -9.82102 -0.482993 -11.1071
upperneck 29.1109 1.09345 2.17495
head 10.9832 -0.435851 2.83721
rclavicle 8.24956e-015 4.96962e-016
rhumerus -37.033 25.6348 -88.9801
rradius 50.6377
rwrist 31.0442
rhand -69.3151 -6.81545
rfingers 7.12502
rthumb -40.9659 -31.7427
lclavicle 8.24956e-015 4.96962e-016
lhumerus -35.7582 -30.7271 90.8968
lradius 62.9339
lwrist 4.77021
lhand -5.82798 14.6594
lfingers 7.12502
lthumb 19.9977 43.6503
rfemur -92.9798 -5.83592 16.6017
rtibia 104.374
rfoot -10.0112 -2.84958
rtoes -2.16952
lfemur -94.8713 5.83133 -11.5313
ltibia 101.019
lfoot -9.70556 -12.7431
ltoes -6.38671
